<mxfile host="app.diagrams.net" modified="2024-05-26T20:13:51.233Z" agent="Mozilla/5.0 (Macintosh; Intel Mac OS X 10_15_7) AppleWebKit/537.36 (KHTML, like Gecko) Chrome/124.0.0.0 Safari/537.36" etag="aC2j1q1UgSleN1OS5z_Y" version="24.3.1" type="github">
  <diagram name="Page-1" id="IeimgIaIVfG2oiWaPAk_">
    <mxGraphModel dx="1434" dy="801" grid="0" gridSize="10" guides="1" tooltips="1" connect="1" arrows="1" fold="1" page="1" pageScale="1" pageWidth="1500" pageHeight="800" math="0" shadow="0">
      <root>
        <mxCell id="0" />
        <mxCell id="1" parent="0" />
        <mxCell id="hfNC65x9CHhoDt6tJmrh-4" value="" style="group" vertex="1" connectable="0" parent="1">
          <mxGeometry x="614" y="34" width="273" height="226" as="geometry" />
        </mxCell>
        <mxCell id="hfNC65x9CHhoDt6tJmrh-1" value="" style="rounded=1;whiteSpace=wrap;html=1;" vertex="1" parent="hfNC65x9CHhoDt6tJmrh-4">
          <mxGeometry width="273" height="226" as="geometry" />
        </mxCell>
        <mxCell id="hfNC65x9CHhoDt6tJmrh-2" value="&lt;span style=&quot;font-size: 20px;&quot;&gt;Bank Contract&lt;/span&gt;" style="rounded=0;whiteSpace=wrap;html=1;fillColor=#d5e8d4;strokeColor=none;rotation=-90;" vertex="1" parent="hfNC65x9CHhoDt6tJmrh-4">
          <mxGeometry x="-47.172794117647065" y="96.28277153558052" width="156.32261029411765" height="33.434456928838955" as="geometry" />
        </mxCell>
        <mxCell id="hfNC65x9CHhoDt6tJmrh-3" value="&lt;ul&gt;&lt;li&gt;&lt;font style=&quot;font-size: 20px;&quot;&gt;Deal management&lt;/font&gt;&lt;/li&gt;&lt;/ul&gt;&lt;div&gt;&lt;br&gt;&lt;/div&gt;&lt;ul&gt;&lt;li style=&quot;text-align: left;&quot;&gt;&lt;font style=&quot;font-size: 20px;&quot;&gt;Bond management&lt;/font&gt;&lt;/li&gt;&lt;/ul&gt;&lt;div style=&quot;text-align: left;&quot;&gt;&lt;br&gt;&lt;/div&gt;&lt;ul&gt;&lt;li style=&quot;text-align: left;&quot;&gt;&lt;font style=&quot;font-size: 20px;&quot;&gt;IRS management&lt;/font&gt;&lt;/li&gt;&lt;/ul&gt;" style="text;html=1;align=center;verticalAlign=middle;whiteSpace=wrap;rounded=0;" vertex="1" parent="hfNC65x9CHhoDt6tJmrh-4">
          <mxGeometry x="52.19117647058824" y="47.40074906367041" width="213.78308823529414" height="131.1985018726592" as="geometry" />
        </mxCell>
        <mxCell id="hfNC65x9CHhoDt6tJmrh-12" value="" style="group" vertex="1" connectable="0" parent="1">
          <mxGeometry x="165" y="356" width="222" height="214" as="geometry" />
        </mxCell>
        <mxCell id="hfNC65x9CHhoDt6tJmrh-5" value="" style="rounded=1;whiteSpace=wrap;html=1;" vertex="1" parent="hfNC65x9CHhoDt6tJmrh-12">
          <mxGeometry width="222" height="214" as="geometry" />
        </mxCell>
        <mxCell id="hfNC65x9CHhoDt6tJmrh-6" value="&lt;font style=&quot;font-size: 20px;&quot;&gt;Bond Contract&lt;/font&gt;" style="rounded=0;whiteSpace=wrap;html=1;fillColor=#d5e8d4;strokeColor=none;rotation=-90;" vertex="1" parent="hfNC65x9CHhoDt6tJmrh-12">
          <mxGeometry x="-42" y="87.5" width="142" height="39" as="geometry" />
        </mxCell>
        <mxCell id="hfNC65x9CHhoDt6tJmrh-9" value="&lt;font style=&quot;font-size: 15px;&quot;&gt;Redeem Bonds&lt;/font&gt;" style="rounded=1;whiteSpace=wrap;html=1;" vertex="1" parent="hfNC65x9CHhoDt6tJmrh-12">
          <mxGeometry x="103" y="153" width="109" height="40" as="geometry" />
        </mxCell>
        <mxCell id="hfNC65x9CHhoDt6tJmrh-10" value="&lt;font style=&quot;font-size: 15px;&quot;&gt;Issue Bonds&lt;/font&gt;" style="rounded=1;whiteSpace=wrap;html=1;" vertex="1" parent="hfNC65x9CHhoDt6tJmrh-12">
          <mxGeometry x="103" y="87" width="109" height="40" as="geometry" />
        </mxCell>
        <mxCell id="hfNC65x9CHhoDt6tJmrh-11" value="&lt;font style=&quot;font-size: 15px;&quot;&gt;IERC-7092&lt;/font&gt;" style="rounded=1;whiteSpace=wrap;html=1;" vertex="1" parent="hfNC65x9CHhoDt6tJmrh-12">
          <mxGeometry x="103" y="21" width="109" height="40" as="geometry" />
        </mxCell>
        <mxCell id="hfNC65x9CHhoDt6tJmrh-13" value="" style="group" vertex="1" connectable="0" parent="1">
          <mxGeometry x="512" y="352" width="222" height="214" as="geometry" />
        </mxCell>
        <mxCell id="hfNC65x9CHhoDt6tJmrh-14" value="" style="rounded=1;whiteSpace=wrap;html=1;" vertex="1" parent="hfNC65x9CHhoDt6tJmrh-13">
          <mxGeometry width="222" height="214" as="geometry" />
        </mxCell>
        <mxCell id="hfNC65x9CHhoDt6tJmrh-15" value="&lt;font style=&quot;font-size: 20px;&quot;&gt;IRS Contract&lt;/font&gt;" style="rounded=0;whiteSpace=wrap;html=1;fillColor=#d5e8d4;strokeColor=none;rotation=-90;" vertex="1" parent="hfNC65x9CHhoDt6tJmrh-13">
          <mxGeometry x="-42" y="87.5" width="142" height="39" as="geometry" />
        </mxCell>
        <mxCell id="hfNC65x9CHhoDt6tJmrh-27" style="edgeStyle=orthogonalEdgeStyle;rounded=0;orthogonalLoop=1;jettySize=auto;html=1;entryX=0.5;entryY=1;entryDx=0;entryDy=0;" edge="1" parent="hfNC65x9CHhoDt6tJmrh-13" source="hfNC65x9CHhoDt6tJmrh-17" target="hfNC65x9CHhoDt6tJmrh-18">
          <mxGeometry relative="1" as="geometry" />
        </mxCell>
        <mxCell id="hfNC65x9CHhoDt6tJmrh-17" value="&lt;font style=&quot;font-size: 15px;&quot;&gt;ERC-20&lt;/font&gt;" style="rounded=1;whiteSpace=wrap;html=1;" vertex="1" parent="hfNC65x9CHhoDt6tJmrh-13">
          <mxGeometry x="89" y="162" width="109" height="40" as="geometry" />
        </mxCell>
        <mxCell id="hfNC65x9CHhoDt6tJmrh-18" value="&lt;font style=&quot;font-size: 15px;&quot;&gt;IERC-7586&lt;/font&gt;" style="rounded=1;whiteSpace=wrap;html=1;" vertex="1" parent="hfNC65x9CHhoDt6tJmrh-13">
          <mxGeometry x="89" y="12" width="109" height="40" as="geometry" />
        </mxCell>
        <mxCell id="hfNC65x9CHhoDt6tJmrh-28" value="&lt;font style=&quot;font-size: 13px;&quot;&gt;Cash Flow&lt;/font&gt;" style="text;html=1;align=center;verticalAlign=middle;whiteSpace=wrap;rounded=0;rotation=-90;" vertex="1" parent="hfNC65x9CHhoDt6tJmrh-13">
          <mxGeometry x="89" y="95.5" width="83" height="23" as="geometry" />
        </mxCell>
        <mxCell id="hfNC65x9CHhoDt6tJmrh-29" value="&lt;font style=&quot;font-size: 13px;&quot;&gt;Tokenization&lt;/font&gt;" style="text;html=1;align=center;verticalAlign=middle;whiteSpace=wrap;rounded=0;rotation=-90;" vertex="1" parent="hfNC65x9CHhoDt6tJmrh-13">
          <mxGeometry x="115" y="95.5" width="83" height="23" as="geometry" />
        </mxCell>
      </root>
    </mxGraphModel>
  </diagram>
</mxfile>
